<?xml version="1.0" encoding="utf-8"?>
<!-- Generator: Adobe Illustrator 24.0.0, SVG Export Plug-In . SVG Version: 6.00 Build 0)  -->
<svg version="1.1" id="图层_1" xmlns="http://www.w3.org/2000/svg" xmlns:xlink="http://www.w3.org/1999/xlink" x="0px" y="0px"
	 viewBox="0 0 140 180" style="enable-background:new 0 0 140 180;" xml:space="preserve">
<style type="text/css">
	.st0{fill:#4C4C4C;stroke:#221714;}
	.st1{fill:#999999;}
	.st2{fill:#666666;}
	.st3{fill:#DC7800;}
	.st4{font-family:'SimHei';}
	.st5{font-size:12.3371px;}
	.st6{fill:#FFFFFF;}
	.st7{font-size:7.3838px;}
	.st8{fill:#56AAFF;}
	.st9{font-family:'ArialMT';}
	.st10{font-size:3.4869px;}
	.st11{fill:none;stroke:#221714;stroke-width:5.000000e-02;}
	.st12{fill:none;stroke:#221714;stroke-width:0.5;}
	.st13{fill:#FFFFFF;stroke:#221714;}
	.st14{fill:none;stroke:#FFFFFF;}
	.st15{fill:#F0F0F0;stroke:#221714;stroke-width:0.1;}
	.st16{font-family:'SimSun';}
	.st17{font-size:2.343px;}
	.st18{fill:#B2B2B2;stroke:#000000;stroke-width:0.3;}
	.st19{fill:#FFAF00;}
	.st20{fill:#00FFBF;}
	.st21{font-size:4.2055px;}
	.st22{fill:#E5E5E5;}
	.st23{fill:#E5E5E5;stroke:#221714;stroke-width:0.2;}
	.st24{stroke:#221714;stroke-width:0.2;}
	.st25{fill:#4C4C4C;stroke:#221714;stroke-width:0.2;}
</style>
<g id="Layer_1">
	<title>Layer 1</title>
	<path id="svg_2" class="st0" d="M11.8,7.8h116.2v146.1H11.8C11.8,153.8,11.8,7.8,11.8,7.8z"/>
	<path id="svg_3" class="st1" d="M12.1,42.7h116.2v73.2H12.1C12.1,115.9,12.1,42.7,12.1,42.7z"/>
	<path id="svg_4" class="st2" d="M20.6,23h99v16.8h-99C20.6,39.8,20.6,23,20.6,23z"/>
	<text id="svg_5" transform="matrix(0.602 0 0 1 26.6191 35.9046)" class="st3 st4 st5">北安跨线</text>
	<path id="svg_10" class="st6" d="M65.5,31.8l-2.6-4.7l4.7,4.7l-4.7,4.7C62.9,36.5,65.5,31.8,65.5,31.8z"/>
	<path id="svg_12" class="st6" d="M61.1,32.1l-1.7-3l3,3l-3,3L61.1,32.1z"/>
	<text id="svg_13" transform="matrix(0.8911 0 0 1 69.8447 31.3041)" class="st3 st4 st7">绿苑路曹安公路</text>
	<text transform="matrix(1 0 0 1 69.501 37.6566)" class="st8 st9 st10">Lvyuan Road Cao&apos;an Highway</text>
	<text id="svg_14" transform="matrix(1 0 0 1 69.501 37.6566)" class="st11 st9 st10">Lvyuan Road Cao&apos;an Highway</text>
	<path id="svg_16" class="st12" d="M21,119.5l23.8-6"/>
	<line id="svg_18" class="st12" x1="44.7" y1="113.5" x2="107.1" y2="110.6"/>
	<ellipse id="svg_19" class="st13" cx="21.5" cy="119.7" rx="0.5" ry="0.5"/>
	<ellipse id="svg_20" class="st13" cx="119" cy="120.2" rx="0.5" ry="0.5"/>
	<path id="svg_22" class="st12" d="M118.8,120l-26.4-8.5"/>
	<line id="svg_26" class="st14" x1="41.2" y1="136.5" x2="99.3" y2="136.3"/>
	<line id="svg_27" class="st14" x1="99" y1="136" x2="110.9" y2="130.8"/>
	<line id="svg_28" class="st14" x1="41.2" y1="136.5" x2="29.5" y2="130.7"/>
	<path id="svg_29" class="st15" d="M11.5,7.5h1.6v146.6h-1.6C11.5,154.1,11.5,7.5,11.5,7.5z"/>
	<path id="svg_30" class="st15" d="M127,7.7h1.4v146.5H127C127,154.2,127,7.7,127,7.7z"/>
	<text transform="matrix(1.1634 0 0 1 58.3232 128.849)" class="st6 st16 st17">久    事    公    交</text>
	<rect id="svg_33" x="11.4" y="153.5" class="st18" width="117.1" height="17.9"/>
	<rect id="svg_34" x="54.3" y="162.4" class="st19" width="34.2" height="7.1"/>
	<rect id="svg_37" x="68" y="163" class="st20" width="19" height="5.7"/>
	<text id="svg_36" transform="matrix(1.0565 0 0 1 58.9023 167.8509)" class="st4 st21">沪A  888888</text>
	<path id="svg_38" class="st22" d="M11.5,153.5h116.9v6H11.5V153.5z"/>
	<rect id="svg_39" x="13.8" y="143.2" class="st22" width="6" height="2.9"/>
	<rect id="svg_41" x="20.6" y="143.2" class="st22" width="6" height="2.9"/>
	<rect id="svg_42" x="13.8" y="147.1" class="st22" width="6" height="2.9"/>
	<rect id="svg_43" x="20.6" y="147.1" class="st22" width="6" height="2.9"/>
	<rect id="svg_44" x="120" y="143.5" class="st22" width="6" height="2.9"/>
	<rect id="svg_45" x="113.3" y="143.5" class="st22" width="6" height="2.9"/>
	<rect id="svg_46" x="120" y="147" class="st22" width="6" height="2.9"/>
	<rect id="svg_47" x="113.3" y="147" class="st22" width="6" height="2.9"/>
	<path id="svg_48" class="st23" d="M17,7.4h106.3v10.5H17C17,17.9,17,7.4,17,7.4z"/>
	<ellipse id="svg_50" class="st24" cx="71.3" cy="20.3" rx="0.9" ry="0.9"/>
	<path id="svg_56" class="st23" d="M4.7,34.8h7.3l0,0c1,0,1.7,5.8,1.7,13s-0.8,13-1.7,13H4.7l0,0c-1,0-1.7-5.8-1.7-13
		S3.7,34.8,4.7,34.8z"/>
	<rect id="svg_57" x="4.6" y="32.4" class="st25" width="6.6" height="2.2"/>
	<rect id="svg_58" x="128.6" y="32.4" class="st25" width="6.6" height="2.2"/>
	<path id="svg_59" class="st23" d="M128.4,34.8h6.9l0,0c0.9,0,1.6,5.8,1.6,13s-0.7,13-1.6,13h-6.9l0,0c-0.9,0-1.6-5.8-1.6-13
		S127.5,34.8,128.4,34.8z"/>
</g>
</svg>
